# xmcd
#
# Track frame offsets:
#	150
#	23980
#	58714
#	111465
#	135492
#	187841
#	227558
#	264882
#	295200
#
# Disc length: 4395 seconds
#
# Revision: 10
# Processed by: cddbd v1.5.2PL0 Copyright (c) Steve Scherf et al.
# Submitted via: EasyCDDAExtractor 10.2.0.1
#
DISCID=78112909
DTITLE=Eric Clapton - Crossroads 2: Live in the Seventies [CD1)
DYEAR=1996
DGENRE=Blues
TTITLE0=Walkin' Down The Road
TTITLE1=Have You Ever Loved A Woman
TTITLE2=Willie And The Hand Jive(Get Ready)
TTITLE3=Can't Find My Way Home
TTITLE4=Driftin' Blues(Rambling On My Mind
TTITLE5=Presence Of The Lord
TTITLE6=Rambling Of My Mind(Have You Ever Loved A Woman
TTITLE7=Little Wing
TTITLE8=The Sky S Crying(Have You Ever Loved A Woman
EXTD=
EXTT0=
EXTT1=
EXTT2=
EXTT3=
EXTT4=
EXTT5=
EXTT6=
EXTT7=
EXTT8=
PLAYORDER=
